# xmcd
#
# Track frame offsets: 
#        150
#        9166
#        21173
#        37081
#        65318
#        66948
#        78111
#        97405
#        103825
#        127382
#        145514
#        160783
#        165927
#
# Disc length: 2468 seconds
#
# Revision: 0
# Processed by: cddbd v1.5.2PL0 Copyright (c) Steve Scherf et al.
# Submitted via: ExactAudioCopy v0.99pb4
#
DISCID=a709a20d
DTITLE=DJ Sound - Vol. 5 Gangsta Shit
DYEAR=1994
DGENRE=Underground Rap
TTITLE0=Menace To Society Skit
TTITLE1=Intro
TTITLE2=Ghetto Streets Mix
TTITLE3=Variety Song Mix
TTITLE4=DJ Sound Skit
TTITLE5=Playa Type
TTITLE6=Givin Up No Love (MC D.O.N.)
TTITLE7=Whats Yo Name (Short Lenght Mix)
TTITLE8=Copkilla Part 1
TTITLE9=Bonus Track
TTITLE10=Nuthin But That Money
TTITLE11=Campaigning Smokin Indo (Part 1)
TTITLE12=Click Roll Call (LB and Rob)
EXTD=
EXTT0=
EXTT1=
EXTT2=
EXTT3=
EXTT4=
EXTT5=
EXTT6=
EXTT7=
EXTT8=
EXTT9=
EXTT10=
EXTT11=
EXTT12=
PLAYORDER=
